<svg width="28" height="28" viewBox="0 0 28 28" fill="none" xmlns="http://www.w3.org/2000/svg">
<path d="M14 27.3333C6.63596 27.3333 0.666626 21.364 0.666626 14C0.666626 6.63601 6.63596 0.666672 14 0.666672C21.364 0.666672 27.3333 6.63601 27.3333 14C27.3333 21.364 21.364 27.3333 14 27.3333ZM14 24.6667C16.8289 24.6667 19.542 23.5429 21.5424 21.5425C23.5428 19.5421 24.6666 16.829 24.6666 14C24.6666 11.171 23.5428 8.45792 21.5424 6.45753C19.542 4.45714 16.8289 3.33334 14 3.33334C11.171 3.33334 8.45788 4.45714 6.45749 6.45753C4.4571 8.45792 3.33329 11.171 3.33329 14C3.33329 16.829 4.4571 19.5421 6.45749 21.5425C8.45788 23.5429 11.171 24.6667 14 24.6667ZM12.6666 18H15.3333V20.6667H12.6666V18ZM15.3333 15.8067V16.6667H12.6666V14.6667C12.6666 14.3131 12.8071 13.9739 13.0572 13.7239C13.3072 13.4738 13.6463 13.3333 14 13.3333C14.3787 13.3333 14.7497 13.2257 15.0697 13.0231C15.3897 12.8205 15.6456 12.5312 15.8077 12.1888C15.9697 11.8464 16.0311 11.4651 15.9849 11.0891C15.9386 10.7132 15.7866 10.3581 15.5464 10.0652C15.3062 9.77232 14.9878 9.55365 14.6283 9.43463C14.2687 9.31562 13.8827 9.30116 13.5152 9.39295C13.1477 9.48473 12.8138 9.67898 12.5524 9.95309C12.291 10.2272 12.1129 10.5699 12.0386 10.9413L9.42263 10.4173C9.5848 9.60678 9.95931 8.85383 10.5079 8.23545C11.0564 7.61707 11.7593 7.15545 12.5447 6.89777C13.3302 6.64008 14.1699 6.59559 14.9782 6.76883C15.7865 6.94206 16.5342 7.32682 17.1451 7.88377C17.7559 8.44072 18.2079 9.14988 18.4548 9.93876C18.7017 10.7276 18.7347 11.5679 18.5504 12.3737C18.3662 13.1796 17.9712 13.922 17.406 14.5252C16.8407 15.1283 16.1255 15.5706 15.3333 15.8067Z" fill="#2A1A80"/>
</svg>
